<?xml version="1.0" encoding="utf-8"?>
<!-- Generator: Adobe Illustrator 27.0.1, SVG Export Plug-In . SVG Version: 6.00 Build 0)  -->
<svg version="1.1" id="图层_1" xmlns="http://www.w3.org/2000/svg" xmlns:xlink="http://www.w3.org/1999/xlink" x="0px" y="0px"
	 viewBox="0 0 1190.55 841.89" style="enable-background:new 0 0 1190.55 841.89;" xml:space="preserve">
<style type="text/css">
	.st0{display:none;}
	.st1{display:inline;fill:#555656;}
	.st2{fill:#0A569E;}
	.st3{display:inline;}
</style>
<g class="st0">
	<path class="st1" d="M175.77,691.27v24.64l-17.41-24.64h-3.42c-1.96,0-3.55,1.59-3.55,3.55v31.51h6.96v-24.61l17.41,24.61h3.42
		c1.96,0,3.55-1.59,3.55-3.54v-31.52H175.77z"/>
	<path class="st1" d="M271.82,701.22l-3.83,10.94h5.09c0.96,0,1.82,0.61,2.12,1.52l1.83,5.44h-11.49l-2.44,7.21h-6.96l12.2-35.02
		l0.02-0.04h4.45c1.47,0,2.79,0.93,3.27,2.32l11.4,32.74h-6.96L271.82,701.22z"/>
	<polygon class="st1" points="392.24,691.27 392.24,726.33 385.28,726.33 385.28,712.16 367.87,712.16 367.87,726.33 360.9,726.33 
		360.9,691.27 367.87,691.27 367.87,705.2 385.28,705.2 385.28,691.27 	"/>
	<path class="st1" d="M589.55,726.33h-6.96v-35.06h2.81c2.3,0,4.16,1.86,4.16,4.16V726.33z"/>
	<path class="st1" d="M496.99,691.27v20.89c0,0,0,13.92-15.67,13.92c-15.67,0-15.67-13.92-15.67-13.92v-20.89h3.43
		c1.95,0,3.54,1.58,3.54,3.54v17.35c0,0,0.05,6.96,8.7,6.96c8.65,0,8.7-6.96,8.7-6.96v-17.44c0-1.91,1.55-3.45,3.45-3.45H496.99z"/>
</g>
<g>
	<g>
		<polygon class="st2" points="730.92,359.61 713.69,401.77 730.92,401.77 730.92,412.31 709.38,412.31 696.53,412.3 687.87,412.3 
			700.79,380.69 687.87,380.68 709.4,328.87 730.92,328.86 718,359.62 		"/>
		<polygon class="st2" points="730.93,416.98 709.38,443.93 687.87,443.9 709.38,416.96 		"/>
		<polygon class="st2" points="709.38,412.31 696.53,412.31 696.53,412.3 		"/>
		<path class="st2" d="M830.61,349.05v75.93c0,10.46-8.48,18.94-18.94,18.94H799v-10.54l0,0c5.81,0,10.52-4.71,10.52-10.52v-73.89
			h-15.94l-4.47,20.86h4.62l11.07,53.07h-16.46l-6.22-20.45l-4.38,20.45h-16.46l10.87-73.93h-15.33v94.95h-21.08v-94.88
			c0-5.81,4.71-10.51,10.51-10.51h26.09v-9.67h21.53v9.67h26.21C825.9,338.54,830.61,343.24,830.61,349.05z"/>
		<path class="st2" d="M987.11,339.27v10.68h-21.08v-10.4c0-0.05,0-0.09,0.01-0.14h-42.16v10.54h-21.08v-21.08h73.78v0.01
			c0.05-0.01,0.09-0.01,0.14-0.01C982.45,328.86,987.11,333.52,987.11,339.27z"/>
		<path class="st2" d="M887.88,328.9c-0.29-0.03-0.58-0.04-0.87-0.04h-42.13v104.3c0,5.51,4.24,10.03,9.64,10.47
			c0.29,0.03,0.58,0.04,0.87,0.04h42.13V339.38C897.52,333.87,893.28,329.35,887.88,328.9z M876.45,339.16
			c-0.01,0.07-0.01,0.15-0.01,0.22v41.31h-10.48v-41.54H876.45z M865.96,433.39c0.01-0.07,0.01-0.15,0.01-0.22v-42.18h10.48v42.4
			H865.96z"/>
		<path class="st2" d="M887.88,328.86v0.04c-0.29-0.03-0.58-0.04-0.87-0.04H887.88z"/>
		<polygon class="st2" points="938.07,370.15 924.6,391.23 934.41,391.23 934.41,380.69 955.49,380.69 955.49,391.23 987.11,391.23 
			987.11,401.77 955.49,401.77 955.49,412.38 987.11,412.38 987.11,427.99 955.49,427.99 955.49,444.45 934.41,444.45 
			934.41,427.99 902.79,427.99 902.79,412.38 934.41,412.38 934.41,401.77 902.79,401.77 902.79,391.23 902.91,391.23 
			916.65,370.15 902.79,370.15 902.79,360.48 923.52,360.48 934.41,343.77 955.49,343.77 944.81,360.48 987.11,360.48 
			987.11,370.15 		"/>
		<path class="st2" d="M855.4,443.67h-0.87v-0.04C854.81,443.66,855.1,443.67,855.4,443.67z"/>
	</g>
	<g>
		<path class="st2" d="M283.54,328.72v80.97l-57.21-80.97h-11.24c-6.44,0-11.65,5.22-11.65,11.65v103.57h22.89v-80.9l57.21,80.9
			h11.24c6.44,0,11.65-5.22,11.65-11.64V328.72H283.54z"/>
		<path class="st2" d="M364.8,361.42l-12.58,35.96h16.73c3.17,0,5.97,2.02,6.98,5.01l6.03,17.87H344.2l-8.01,23.69h-22.88
			l40.09-115.09l0.05-0.14h14.62c4.84,0,9.16,3.05,10.76,7.62l37.46,107.61h-22.88L364.8,361.42z"/>
		<polygon class="st2" points="526.13,328.72 526.13,443.95 503.25,443.95 503.25,397.38 446.05,397.38 446.05,443.95 
			423.15,443.95 423.15,328.72 446.05,328.72 446.05,374.48 503.25,374.48 503.25,328.72 		"/>
		<path class="st2" d="M664.25,443.95h-22.88V328.72h19.68c1.77,0,3.21,1.44,3.21,3.21V443.95z"/>
		<path class="st2" d="M635.25,328.59v68.65c0,0,0,45.76-51.49,45.76c-51.5,0-51.5-45.76-51.5-45.76v-68.65h11.26
			c6.42,0,11.63,5.21,11.63,11.63v57.02c0,0,0.16,22.88,28.61,22.88c28.44,0,28.6-22.88,28.6-22.88v-57.31
			c0-6.26,5.08-11.34,11.34-11.34H635.25z"/>
	</g>
</g>
<g class="st0">
	<g class="st3">
		<g>
			<path class="st2" d="M834.71,497.06c1.66,0,3.32,0,4.98,0c0,5.76,0,11.52,0,17.28c1.12,0,2.24,0,3.36,0c0-6.71,0-13.43,0-20.14
				c-2.78,0-5.56,0-8.34,0c0-2.18,0-4.36,0-6.54c3.79,0,7.59,0,11.38,0c0-0.95,0-1.91,0-2.86c-1.12,0-2.24,0-3.36,0
				c0-4.96,0-9.93,0-14.89c-1.12,0-2.24,0-3.36,0c0,4.96,0,9.93,0,14.89c-1.55,0-3.1,0-4.66,0c0-4.52,0-9.03,0-13.55
				c-1.12,0-2.24,0-3.36,0c0,8.53,0,17.05,0,25.58c0,6.82-1.01,12-3.04,15.53c1.11,0.95,2.06,1.84,2.86,2.67
				C833.52,510.98,834.71,504.99,834.71,497.06z"/>
			<path class="st2" d="M863.61,503.05c0-1.97,0-3.93,0-5.9c-1.12,0-2.24,0-3.36,0c0,1.97,0,3.93,0,5.9c-3.07,0-6.15,0-9.22,0
				c4.06-2.55,6.73-5.22,8.02-8.02c2.9,0,5.81,0,8.71,0c0,0.52,0,1.04,0,1.57c1.08,0,2.15,0,3.23,0c0-7.38,0-14.75,0-22.12
				c-3.96,0-7.93,0-11.89,0c0.58-1.2,1.21-2.54,1.89-4.01c-1.2-0.37-2.4-0.74-3.6-1.11c-0.61,1.94-1.21,3.64-1.8,5.12
				c-2.61,0-5.22,0-7.84,0c0,6.85,0,13.7,0,20.56c2.46,0,4.92,0,7.37,0c-1.41,2.06-3.75,3.93-7.01,5.62c0.74,0.8,1.41,1.6,2.03,2.4
				c-1.87,0-3.75,0-5.62,0c0,1.06,0,2.12,0,3.18c5.24,0,10.48,0,15.72,0c0,2.81,0,5.62,0,8.43c1.12,0,2.24,0,3.36,0
				c0-2.81,0-5.62,0-8.43c3.47,0,6.94,0,10.42,0c0-1.06,0-2.12,0-3.18C870.55,503.05,867.08,503.05,863.61,503.05z M860.89,477.52
				h6.87v5.72h-6.87V477.52z M860.79,486.18c2.32,0,4.64,0,6.96,0c0,1.94,0,3.87,0,5.81c-2.57,0-5.13,0-7.7,0
				C860.46,490.39,860.7,488.46,860.79,486.18z M850.98,477.52h6.68v5.72h-6.68V477.52z M850.98,491.99c0-1.94,0-3.87,0-5.81
				c2.2,0,4.39,0,6.59,0c-0.15,2.34-0.48,4.27-0.97,5.81C854.73,491.99,852.85,491.99,850.98,491.99z"/>
		</g>
		<g>
			<path class="st2" d="M331.38,486.78c1.81,1.51,3.66,3.18,5.53,5.02c0.78-0.8,1.57-1.6,2.35-2.4c-1.91-1.63-3.84-3.2-5.81-4.7
				C332.77,485.4,332.08,486.09,331.38,486.78z"/>
			<path class="st2" d="M330.79,498.58c1.84,1.63,3.67,3.32,5.48,5.07c0.8-0.8,1.6-1.6,2.4-2.4c-1.78-1.6-3.7-3.18-5.76-4.75
				C332.2,497.2,331.49,497.89,330.79,498.58z"/>
			<path class="st2" d="M308.94,472.45c1.57,1.29,4.01,3.52,7.33,6.68c0.77-0.8,1.67-1.71,2.72-2.72c-3.29-2.86-5.85-4.99-7.7-6.41
				C310.5,470.82,309.72,471.63,308.94,472.45z"/>
			<path class="st2" d="M307.19,484.71c2.27,1.72,4.78,3.81,7.51,6.27c0.68-0.71,1.57-1.69,2.67-2.95c-2.43-2-5.06-3.98-7.88-5.95
				C308.72,482.96,307.95,483.83,307.19,484.71z"/>
			<path class="st2" d="M308.57,513.52c1.35,0.41,2.7,0.83,4.06,1.24c1.35-5.62,2.81-11.45,4.38-17.47
				c-1.14-0.37-2.38-0.85-3.73-1.43C311.95,502.25,310.38,508.14,308.57,513.52z"/>
			<path class="st2" d="M317.05,482.5c0.86,0.89,1.64,1.8,2.35,2.72c2.37-2.35,4.54-5.07,6.52-8.16c8.76,0,17.53,0,26.3,0
				c0-1.08,0-2.15,0-3.23c-8.12,0-16.24,0-24.36,0c0.81-1.44,1.59-2.97,2.33-4.56c-1.31,0-2.61,0-3.92,0
				C323.93,474.49,320.86,478.9,317.05,482.5z"/>
			<path class="st2" d="M353.19,495.77c0-1.08,0-2.15,0-3.23c-1.61,0-3.23,0-4.84,0c0.09-3.41,0.19-7.25,0.28-11.52
				c-8.28,0-16.56,0-24.84,0c-0.54,3.84-1.09,7.68-1.64,11.52c-1.57,0-3.15,0-4.72,0c0,1.08,0,2.15,0,3.23c1.42,0,2.84,0,4.26,0
				c-0.39,2.74-0.78,5.47-1.18,8.21c0,1.14,0,2.27,0,3.41c7.9,0,15.79,0,23.69,0c-0.45,2.3-1.83,3.46-4.15,3.46
				c-1.6,0-3.89-0.14-6.87-0.41c0.28,1.44,0.49,2.69,0.65,3.73c2.52,0.12,4.58,0.18,6.18,0.18c2.83,0,4.79-0.63,5.9-1.89
				c0.97-1.12,1.58-2.81,1.84-5.07c1.32,0,2.64,0,3.96,0c0-1.05,0-2.09,0-3.13c-1.25,0-2.5,0-3.76,0c0.09-2.34,0.18-5.16,0.28-8.48
				C349.88,495.77,351.53,495.77,353.19,495.77z M344.45,504.25c-6.77,0-13.54,0-20.3,0c0.38-2.83,0.75-5.65,1.13-8.48
				c6.5,0,13,0,19.5,0C344.68,498.91,344.57,501.73,344.45,504.25z M344.87,492.55c-6.39,0-12.78,0-19.17,0
				c0.38-2.8,0.75-5.59,1.13-8.39c6.08,0,12.17,0,18.25,0C345.01,487.14,344.94,489.93,344.87,492.55z"/>
		</g>
		<g>
			<path class="st2" d="M402.98,491.07c4.15,5.9,8.01,11.92,11.57,18.07c1.15-0.75,2.3-1.51,3.46-2.26
				c-3.63-5.84-7.65-11.79-12.08-17.84C404.95,489.72,403.97,490.39,402.98,491.07z"/>
			<path class="st2" d="M384.91,488.95c-3.01,6.73-6.79,12.81-11.34,18.25c1.23,0.92,2.32,1.71,3.27,2.35
				c4.27-5.5,8.16-11.83,11.66-18.99C387.31,490.03,386.11,489.49,384.91,488.95z"/>
			<path class="st2" d="M398.1,508.45c0-8.94,0-17.88,0-26.83c-1.24,0-2.49,0-3.73,0c0,8.63,0,17.27,0,25.9
				c0,2.03-0.98,3.04-2.95,3.04c-1.17,0-3.21-0.12-6.13-0.37c0.34,1.38,0.58,2.69,0.74,3.92c2.61,0.06,4.73,0.09,6.36,0.09
				C396.19,514.21,398.1,512.29,398.1,508.45z"/>
			<path class="st2" d="M386.07,469.41c-2.83,6.61-7.31,12.72-13.46,18.35c1.35,1.11,2.34,2.03,2.95,2.77
				c3.56-3.53,6.66-7.28,9.29-11.25c9.43,0,18.85,0,28.28,0c-1.29,2.49-2.78,4.87-4.47,7.14c1.51,0.58,2.67,1.12,3.5,1.61
				c1.84-2.64,3.58-5.56,5.21-8.76c0-1.17,0-2.33,0-3.5c-10.11,0-20.22,0-30.33,0c0.97-1.68,1.86-3.4,2.67-5.16
				C388.49,470.21,387.28,469.81,386.07,469.41z"/>
		</g>
		<g>
			<path class="st2" d="M471.47,507.99c2.98,2,6.08,4.32,9.31,6.96c0.77-0.92,1.54-1.84,2.3-2.77c-3.1-2.3-6.27-4.5-9.5-6.59
				C472.88,506.39,472.18,507.19,471.47,507.99z"/>
			<path class="st2" d="M464.28,505.68c-3.41,2.77-6.73,4.92-9.96,6.45c0.86,0.92,1.6,1.87,2.21,2.86
				c3.04-1.72,6.41-4.01,10.09-6.87C465.85,507.31,465.06,506.5,464.28,505.68z"/>
			<path class="st2" d="M455.2,479.18c0.74,0.74,1.49,1.6,2.26,2.58c1.03-1.35,2.05-2.93,3.06-4.75c7.54,0,15.07,0,22.61,0
				c0-1.04,0-2.09,0-3.13c-6.99,0-13.98,0-20.97,0c0.58-1.2,1.17-2.47,1.75-3.83c-1.11-0.29-2.21-0.58-3.32-0.88
				C459.15,473.2,457.35,476.53,455.2,479.18z"/>
			<path class="st2" d="M446.28,476.92c-2.68,0-5.36,0-8.04,0c0,1.04,0,2.09,0,3.13c1.45,0,2.9,0,4.36,0
				c-0.12,6.41-0.22,10.8-0.3,13.18c-0.25,8.6-1.83,14.72-4.75,18.34c0.92,1.01,1.69,1.94,2.3,2.76c3.87-4.39,5.81-12.55,5.81-24.47
				c1.64,0,3.29,0,4.93,0c-0.15,7.04-0.37,12.75-0.65,17.15c-0.09,2.12-1.04,3.18-2.86,3.18c-0.83,0-2.11-0.09-3.83-0.28
				c0.28,1.32,0.51,2.49,0.69,3.5c1.6,0.06,3.13,0.08,4.61,0.05c2.89-0.03,4.44-2.04,4.66-6.04c0.28-5.84,0.51-12.72,0.69-20.65
				c-2.72,0-5.44,0-8.16,0c0.05-2.11,0.08-4.35,0.11-6.73c2.84,0,5.67,0,8.5,0c0-1.05,0-2.09,0-3.13c-2.57,0-5.15,0-7.72,0
				c0.96-0.45,1.92-0.89,2.88-1.34c-1.17-2.4-2.3-4.52-3.41-6.36c-0.94,0.46-1.87,0.92-2.81,1.38
				C444.32,472.51,445.31,474.61,446.28,476.92z"/>
			<path class="st2" d="M478.01,502.41v-16.59h4.42v-3.04h-4.42v-3.69h-3.32v3.69h-11.39v-3.64h-3.32v3.64h-4.52v3.04h4.52v16.59
				h-4.89v3.04h28.21v-3.04H478.01z M474.7,502.41h-11.39v-3.69h11.39V502.41z M474.7,495.96h-11.39v-3.64h11.39V495.96z
				 M474.7,489.46h-11.39v-3.64h11.39V489.46z"/>
		</g>
		<g>
			<path class="st2" d="M527.67,484.16c-0.71,0.98-1.41,1.97-2.12,2.95c0-3.35,0-6.7,0-10.05c7.47,0,14.93,0,22.4,0
				c0-1.26,0-2.52,0-3.78c-14.93,0-29.87,0-44.8,0c0,1.26,0,2.52,0,3.78c6.07,0,12.14,0,18.21,0c0,12.51,0,25.01,0,37.52
				c1.4,0,2.8,0,4.19,0c0-9.02,0-18.04,0-27.06c6.64,4.06,12.34,7.91,17.1,11.57c0.91-1.25,1.81-2.49,2.72-3.73
				C540.61,492.04,534.71,488.3,527.67,484.16z"/>
		</g>
		<g>
			<path class="st2" d="M585.81,499.27c-0.91,0.6-1.81,1.2-2.72,1.8c1.51,2.09,2.93,4.32,4.29,6.68c0.98-0.68,1.97-1.35,2.95-2.03
				C589.04,503.76,587.53,501.61,585.81,499.27z"/>
			<path class="st2" d="M572.54,499.04c-1.72,3.81-3.33,6.88-4.84,9.22c1.14,0.55,2.15,1.11,3.04,1.66c1.63-2.8,3.27-5.93,4.93-9.4
				C574.63,500.03,573.58,499.54,572.54,499.04z"/>
			<path class="st2" d="M579.13,474.71c-3.32,0-6.64,0-9.96,0c0,0.98,0,1.97,0,2.95c7.19,0,14.38,0,21.57,0c0-0.98,0-1.97,0-2.95
				c-3.27,0-6.53,0-9.8,0c0.52-0.25,1.03-0.49,1.54-0.74c-0.83-1.6-1.72-3.18-2.67-4.75c-0.98,0.46-1.97,0.92-2.95,1.38
				C577.71,472.08,578.47,473.45,579.13,474.71z"/>
			<path class="st2" d="M575.12,485.4c-2.47,0-4.95,0-7.42,0c0,0.98,0,1.97,0,2.95c8.08,0,16.16,0,24.24,0c0-0.98,0-1.97,0-2.95
				c-2.33,0-4.66,0-6.98,0c1.35-1.61,2.77-3.38,4.26-5.3c-1.09-0.62-2.18-1.23-3.27-1.84c-1.41,2.35-2.96,4.73-4.63,7.14
				c-2.03,0-4.06,0-6.08,0c0.87-0.63,1.74-1.26,2.6-1.89c-1.6-2.24-2.9-3.98-3.92-5.21c-0.83,0.58-1.66,1.17-2.49,1.75
				C572.58,481.54,573.81,483.33,575.12,485.4z"/>
			<path class="st2" d="M581.71,509c0-4.01,0-8.02,0-12.03c3.01,0,6.02,0,9.03,0c0-0.98,0-1.97,0-2.95c-3.01,0-6.02,0-9.03,0
				c0-1.46,0-2.92,0-4.38c-1.11,0-2.21,0-3.32,0c0,1.46,0,2.92,0,4.38c-3.13,0-6.27,0-9.4,0c0,0.98,0,1.97,0,2.95
				c3.13,0,6.27,0,9.4,0c0,3.76,0,7.53,0,11.29c0,1.57-0.72,2.35-2.17,2.35c-1.01,0-2.41-0.09-4.19-0.28
				c0.22,1.32,0.38,2.49,0.51,3.5c1.66,0.03,3.15,0.05,4.47,0.05C580.14,513.89,581.71,512.26,581.71,509z"/>
			<path class="st2" d="M593.55,473.32c0,6.41,0,12.81,0,19.22c0,8.48-1.98,14.89-5.95,19.22c0.89,1.01,1.71,2,2.44,2.95
				c4.52-5.26,6.77-12.6,6.77-22.03c0-0.75,0-1.51,0-2.26c2.27,0,4.55,0,6.82,0c0,8.05,0,16.1,0,24.15c1.14,0,2.27,0,3.41,0
				c0-8.05,0-16.1,0-24.15c2.2,0,4.39,0,6.59,0c0-1.04,0-2.09,0-3.13c-5.61,0-11.22,0-16.82,0c0-3.58,0-7.16,0-10.74
				c4.27-0.25,9.45-0.77,15.53-1.57c-0.4-1.18-0.8-2.37-1.2-3.55C605.78,472.63,599.92,473.26,593.55,473.32z"/>
		</g>
		<g>
			<path class="st2" d="M650.49,473.51c-0.95,0.6-1.9,1.2-2.86,1.8c1.11,1.54,2.14,3.03,3.11,4.49c-3.76,0.31-7.95,0.61-12.56,0.9
				c2.83-3.29,5.52-6.78,8.07-10.46c-1.21-0.45-2.43-0.89-3.64-1.34c-1.63,2.73-3.29,5.21-4.98,7.42c-1.63,2.03-3.12,3.41-4.47,4.15
				c0.49,1.29,0.98,2.58,1.47,3.87c4.52-0.45,10.53-0.95,18.05-1.5c0.68,1.11,1.31,2.19,1.91,3.25c0.95-0.62,2.01-1.32,3.18-2.12
				C655.72,480.62,653.29,477.13,650.49,473.51z"/>
			<path class="st2" d="M662.62,477.5c0-2.63,0-5.27,0-7.9c-1.2,0-2.4,0-3.6,0c0,5.02,0,10.05,0,15.07c0,3.69,1.86,5.53,5.58,5.53
				c2.24,0,4.49,0,6.73,0c3.69,0,5.76-1.34,6.22-4.01c0.28-1.54,0.54-3.53,0.78-5.99c-1.23-0.43-2.43-0.88-3.6-1.34
				c-0.15,2.52-0.34,4.44-0.55,5.76c-0.25,1.6-1.34,2.4-3.27,2.4c-1.95,0-3.9,0-5.85,0c-1.63,0-2.44-1.03-2.44-3.09
				c0-0.88,0-1.77,0-2.65c4.98-2.01,9.86-4.23,14.66-6.66c-0.69-1.06-1.38-2.12-2.07-3.18C671.04,473.8,666.84,475.82,662.62,477.5z
				"/>
			<path class="st2" d="M662.52,499.69c0-2.54,0-5.07,0-7.61c-1.2,0-2.4,0-3.6,0c0,5.36,0,10.72,0,16.09c0,3.6,1.75,5.39,5.26,5.39
				c2.57,0,5.13,0,7.7,0c3.44,0,5.36-1.35,5.76-4.06c0.28-1.38,0.54-3.43,0.78-6.13c-1.23-0.4-2.43-0.83-3.6-1.29
				c-0.15,2.67-0.34,4.69-0.55,6.04c-0.25,1.51-1.15,2.26-2.72,2.26c-2.26,0-4.52,0-6.78,0c-1.51,0-2.26-0.97-2.26-2.9
				c0-1.33,0-2.66,0-3.99c5.49-2.04,10.74-4.39,15.76-7.03c-0.69-1.06-1.38-2.12-2.07-3.18
				C671.45,495.93,666.89,498.06,662.52,499.69z"/>
			<path class="st2" d="M635.74,487.11c0,9.07,0,18.13,0,27.2c1.2,0,2.4,0,3.6,0c0-3.27,0-6.55,0-9.82c3.84,0,7.68,0,11.52,0
				c0,1.28,0,2.55,0,3.83c0,1.57-0.75,2.35-2.26,2.35c-1.17,0-2.72-0.08-4.66-0.23c0.31,1.38,0.54,2.55,0.69,3.5
				c2.12,0,3.86-0.02,5.21-0.05c3.07,0,4.61-1.66,4.61-4.98c0-7.27,0-14.53,0-21.8C648.22,487.11,641.98,487.11,635.74,487.11z
				 M650.86,501.72h-11.52v-4.47h11.52V501.72z M650.86,494.48h-11.52v-4.42h11.52V494.48z"/>
		</g>
		<g>
			<path class="st2" d="M702.3,470.14c-0.78,0.84-1.57,1.69-2.35,2.54c2.06,1.69,4.42,3.86,7.1,6.5c0.77-0.83,1.69-1.77,2.77-2.81
				C707.23,474.03,704.72,471.96,702.3,470.14z"/>
			<path class="st2" d="M700.31,481.99c-0.77,0.88-1.54,1.75-2.3,2.63c2.24,1.75,4.84,3.93,7.79,6.55c0.68-0.71,1.55-1.71,2.63-3
				C705.41,485.77,702.71,483.71,700.31,481.99z"/>
			<path class="st2" d="M714.79,510.89c0.91,0.71,1.81,1.41,2.72,2.12c2.46-2.8,4.85-6.05,7.19-9.77c-0.98-0.6-1.97-1.2-2.95-1.8
				C719.72,504.94,717.4,508.09,714.79,510.89z"/>
			<path class="st2" d="M743.73,510.48c-2.09-2.92-4.53-6.01-7.33-9.27c-0.89,0.63-1.78,1.26-2.67,1.89c2.55,3.1,4.92,6.3,7.1,9.59
				C741.8,511.95,742.77,511.21,743.73,510.48z"/>
			<path class="st2" d="M703.49,494.85c-1.23,5.9-2.74,12-4.52,18.3c1.18,0.4,2.37,0.8,3.55,1.2c1.57-6.73,2.98-12.71,4.24-17.93
				C705.69,496.08,704.6,495.56,703.49,494.85z"/>
			<path class="st2" d="M743.83,475.67c0-1.04,0-2.09,0-3.13c-10.66,0-21.33,0-31.99,0c0,5.49,0,10.97,0,16.46
				c0,10.63-2.12,18.31-6.36,23.05c1.05,0.95,1.94,1.9,2.67,2.86c4.73-5.22,7.1-13.87,7.1-25.95c0-4.42,0-8.85,0-13.28
				c3.89,0,7.77,0,11.66,0c-0.63,1.89-1.27,3.7-1.94,5.44c-2,0-3.99,0-5.99,0c0,6.3,0,12.6,0,18.9c1.11,0,2.21,0,3.32,0
				c0-0.4,0-0.8,0-1.2c1.86,0,3.72,0,5.58,0c0,3.5,0,7.01,0,10.51c0,1.47-0.71,2.21-2.12,2.21c-1.14,0-2.47-0.06-4.01-0.18
				c0.28,1.2,0.49,2.26,0.65,3.18c1.63,0.03,2.96,0.05,4.01,0.05c3.2,0,4.79-1.64,4.79-4.93c0-3.61,0-7.22,0-10.83
				c1.98,0,3.96,0,5.95,0c0,0.4,0,0.8,0,1.2c1.11,0,2.21,0,3.32,0c0-6.3,0-12.6,0-18.9c-4.06,0-8.11,0-12.17,0
				c0.89-1.78,1.76-3.6,2.6-5.44C735.21,475.67,739.52,475.67,743.83,475.67z M737.14,495.77H722.3v-4.38h14.84V495.77z
				 M737.14,484.16v4.29H722.3v-4.29H737.14z"/>
		</g>
		<g>
			<path class="st2" d="M765.6,493.51v21.29h3.5v-3.09h10.55v3.09h3.5v-21.29H765.6z M779.65,508.59H769.1v-11.85h10.55V508.59z"/>
			<path class="st2" d="M788.87,493.51v21.29h3.5v-3.13h10.6v3.13h3.5v-21.29H788.87z M802.98,508.68h-10.6v-11.94h10.6V508.68z"/>
			<path class="st2" d="M770.11,471.48v18.25h3.69v-1.47h24.43v1.47h3.69v-18.25H770.11z M798.23,485.03H773.8v-10.32h24.43V485.03z
				"/>
		</g>
	</g>
	<g class="st3">
		<g>
			<polygon class="st2" points="350.29,360.96 333.04,403.17 350.29,403.17 350.29,413.72 328.72,413.72 315.86,413.72 
				307.19,413.71 320.12,382.06 307.19,382.05 328.74,330.18 350.29,330.17 337.35,360.96 			"/>
			<polygon class="st2" points="350.3,418.4 328.73,445.38 307.19,445.36 328.73,418.38 			"/>
			<polygon class="st2" points="328.72,413.72 315.86,413.72 315.86,413.72 			"/>
			<path class="st2" d="M450.1,350.38v76.03c0,10.47-8.49,18.97-18.97,18.97h-12.67v-10.55l0,0c5.82,0,10.53-4.72,10.53-10.53
				v-73.98h-15.95l-4.47,20.88h4.62l11.08,53.13h-16.48l-6.23-20.48l-4.39,20.48h-16.48l10.88-74.02h-15.35v95.07h-21.11v-94.99
				c0-5.81,4.71-10.53,10.53-10.53h26.13v-9.69h21.56v9.69h26.24C445.39,339.86,450.1,344.57,450.1,350.38z"/>
			<path class="st2" d="M606.8,340.59v10.69h-21.11v-10.42c0-0.05,0-0.09,0.01-0.14h-42.21v10.55h-21.11v-21.11h73.87v0.01
				c0.05-0.01,0.09-0.01,0.14-0.01C602.13,330.17,606.8,334.84,606.8,340.59z"/>
			<path class="st2" d="M507.45,330.21c-0.29-0.03-0.58-0.04-0.87-0.04H464.4V434.6c0,5.51,4.25,10.04,9.65,10.48
				c0.29,0.03,0.58,0.04,0.87,0.04h42.18V340.7C517.1,335.18,512.85,330.65,507.45,330.21z M496,340.48
				c-0.01,0.07-0.01,0.15-0.01,0.22v41.37h-10.5v-41.59H496z M485.49,434.82c0.01-0.07,0.01-0.15,0.01-0.22v-42.23h10.5v42.45
				H485.49z"/>
			<path class="st2" d="M507.45,330.17v0.04c-0.29-0.03-0.58-0.04-0.87-0.04H507.45z"/>
			<polygon class="st2" points="557.7,371.51 544.21,392.62 554.04,392.62 554.04,382.07 575.14,382.07 575.14,392.62 606.8,392.62 
				606.8,403.17 575.14,403.17 575.14,413.79 606.8,413.79 606.8,429.42 575.14,429.42 575.14,445.9 554.04,445.9 554.04,429.42 
				522.38,429.42 522.38,413.79 554.04,413.79 554.04,403.17 522.38,403.17 522.38,392.62 522.49,392.62 536.25,371.51 
				522.38,371.51 522.38,361.83 543.13,361.83 554.04,345.1 575.14,345.1 564.45,361.83 606.8,361.83 606.8,371.51 			"/>
			<path class="st2" d="M474.92,445.12h-0.87v-0.04C474.34,445.11,474.63,445.12,474.92,445.12z"/>
		</g>
		<g>
			<path class="st2" d="M771.27,369.83c3.85-0.99,7.7-1.65,11.55-1.98c6.74-0.33,8.98-0.49,6.74-0.49
				c11.55-0.33,20.69-0.66,27.42-0.99c1.44,1.98,2.89,3.95,4.33,5.93c3.69-2.47,7.38-4.94,11.07-7.41c0,0.82,0,1.65,0,2.47
				c0,11.53,5.29,17.12,15.88,16.79c5.45,0,10.9,0,16.36,0c8.66,0,13.95-3.79,15.88-11.36c1.28-5.6,2.08-10.54,2.41-14.82
				c-0.64-0.33-1.76-0.66-3.37-0.99c-4.17-1.65-7.54-2.8-10.1-3.46c-0.32,3.62-0.8,7.58-1.44,11.86c-0.64,3.62-2.89,5.43-6.73,5.43
				c-2.57,0-5.13,0-7.7,0c-4.17,0-6.25-2.14-6.25-6.42c0-1.81,0-3.62,0-5.43c8.02-2.96,18.12-7.41,30.31-13.34
				c1.92-0.99,3.37-1.65,4.33-1.98c-2.89-3.79-5.77-7.57-8.66-11.36c-8.98,5.27-17.64,9.55-25.98,12.84c0-5.43,0-10.87,0-16.3
				c-4.97,0-9.94,0-14.91,0c0,11.53,0,23.05,0,34.58c-6.74-9.22-13.47-17.78-20.21-25.69c-3.53,2.14-7.06,4.28-10.58,6.42
				c2.41,3.46,4.81,6.92,7.22,10.37c-7.54,0.17-15.07,0.33-22.61,0.49c3.85-3.95,9.62-10.37,17.32-19.27
				c1.6-1.65,2.73-2.96,3.37-3.95c-5.29-1.65-10.58-3.29-15.88-4.94c-6.41,10.21-11.87,17.62-16.36,22.23
				c-2.89,3.62-5.61,6.09-8.18,7.41C768.07,360.94,769.67,365.38,771.27,369.83z"/>
			<path class="st2" d="M772.24,374.77c0,23.55,0,47.09,0,70.64c4.65,0,9.3,0,13.95,0c0-7.08,0-14.16,0-21.24
				c8.02,0,16.04,0,24.05,0c0,1.32,0,2.63,0,3.95c0.32,2.96-1.44,4.28-5.29,3.95c-3.21,0-6.58,0-10.1,0c0.96,2.96,1.44,5.6,1.44,7.9
				c0.32,2.3,0.64,3.95,0.96,4.94c7.38,0,12.35-0.16,14.91-0.49c8.34-0.33,12.35-4.78,12.03-13.34c0-18.77,0-37.54,0-56.31
				C806.87,374.77,789.55,374.77,772.24,374.77z M810.24,412.81h-24.05v-7.41h24.05V412.81z M810.24,394.53h-24.05v-7.9h24.05
				V394.53z"/>
			<path class="st2" d="M848.25,443.93c5.45,0,10.9,0,16.36,0c9.3,0,14.59-3.79,15.88-11.36c0.96-3.29,1.92-8.4,2.89-15.31
				c-3.21-0.66-7.54-1.98-12.99-3.95c-0.32-0.33-0.64-0.49-0.96-0.49c0,5.6-0.32,9.88-0.96,12.84c-0.64,3.95-3.05,5.76-7.22,5.43
				c-2.41,0-4.81,0-7.22,0c-4.49,0.33-6.57-1.65-6.25-5.93c0-2.63,0-5.27,0-7.9c10.26-4.28,21.81-9.55,34.64-15.81
				c-2.89-3.95-5.77-7.9-8.66-11.86c-9.94,5.27-18.6,9.55-25.98,12.84c0-4.61,0-9.22,0-13.83c-5.13,0-10.26,0-15.39,0
				c0,13.17,0,26.35,0,39.52C832.37,438.66,837.66,443.93,848.25,443.93z"/>
		</g>
		<g>
			<path class="st2" d="M688.66,409.35c2.89-3.46,5.77-6.92,8.66-10.37c-0.64-0.66-1.6-1.48-2.89-2.47
				c-5.77-4.28-10.42-7.57-13.95-9.88c-2.73,3.13-5.45,6.26-8.18,9.39C678.07,400.29,683.52,404.74,688.66,409.35z"/>
			<path class="st2" d="M634.77,439.48c3.85-0.66,9.62-1.48,17.32-2.47c7.38-1.32,12.99-2.3,16.84-2.96
				c-0.32-2.31-0.48-6.92-0.48-13.83c-12.19,1.98-24.05,3.62-35.6,4.94C633.49,429.93,634.13,434.71,634.77,439.48z"/>
			<path class="st2" d="M639.1,413.8c2.25-0.66,5.29-1.15,9.14-1.48c2.25,0,5.45-0.33,9.62-0.99c5.13-0.33,8.98-0.66,11.55-0.99
				c0-3.95,0.16-8.4,0.48-13.34c-4.97,0.33-9.94,0.66-14.91,0.99c7.7-12.19,14.91-24.86,21.65-38.04
				c-4.33-1.98-8.66-3.95-12.99-5.93c-1.76,3.62-3.53,7.25-5.29,10.87c-3.21,0-6.25,0-9.14,0c5.77-9.88,11.71-20.75,17.8-32.6
				c-4.97-1.48-9.94-2.96-14.91-4.45c-4.17,10.87-8.34,20.25-12.51,28.16c-2.25,4.61-4.49,8.07-6.74,10.37
				c1.12,4.61,2.25,9.22,3.37,13.83c0.96,0,2.24-0.16,3.85-0.49c4.49-0.66,8.18-0.99,11.07-0.99c-0.96,1.32-2.09,3.29-3.37,5.93
				c-1.92,3.29-3.37,5.76-4.33,7.41c-1.6,2.63-4.49,5.76-8.66,9.39C636.22,405.56,637.66,409.68,639.1,413.8z"/>
			<path class="st2" d="M704.05,445.41c8.98-0.66,13.31-5.43,12.99-14.33c0-5.43,0-10.87,0-16.3c5.13,8.89,13.47,16.8,25.02,23.71
				c0.96-1.98,2.57-4.61,4.81-7.9c1.6-2.31,2.73-4.12,3.37-5.43c-8.98-3.95-15.56-8.56-19.72-13.83c5.13-3.29,11.39-7.9,18.76-13.83
				c-3.05-3.46-6.09-6.92-9.14-10.37c-1.92,1.65-4.65,3.95-8.18,6.92c-3.85,3.29-6.73,5.76-8.66,7.41
				c-2.25-4.28-4.33-9.06-6.25-14.33c0-0.49,0-0.99,0-1.48c10.91,0,21.81,0,32.71,0c0-4.28,0-8.56,0-12.84c-3.53,0-7.06,0-10.58,0
				c0-13.17,0-26.35,0-39.52c-20.69,0-41.37,0-62.06,0c0,4.28,0,8.56,0,12.84c15.88,0,31.75,0,47.63,0c0,2.3,0,4.61,0,6.92
				c-15.07,0-30.15,0-45.22,0c0,4.12,0,8.23,0,12.35c15.07,0,30.15,0,45.22,0c0,2.47,0,4.94,0,7.41c-17.64,0-35.28,0-52.92,0
				c0,4.28,0,8.56,0,12.84c10.26,0,20.53,0,30.79,0c0,5.43,0,10.87,0,16.3c-11.23,6.59-22.29,12.19-33.2,16.8
				c1.76,4.94,3.53,9.88,5.29,14.82c1.6-0.99,4.17-2.31,7.7-3.95c9.3-5.6,16.04-9.55,20.21-11.86c0,3.13,0,6.26,0,9.39
				c0.32,3.95-1.92,5.76-6.74,5.43c-0.96,0-2.41,0-4.33,0c-2.89-0.33-4.97-0.49-6.25-0.49c0.32,1.32,0.8,3.13,1.44,5.43
				c0.59,3.33,1.04,5.96,1.36,7.9C693.41,445.41,698.73,445.41,704.05,445.41z"/>
		</g>
	</g>
</g>
<g class="st0">
	<g class="st3">
		<g>
			<path class="st2" d="M834.71,496.83c1.66,0,3.32,0,4.98,0c0,5.76,0,11.52,0,17.28c1.12,0,2.24,0,3.36,0c0-6.71,0-13.43,0-20.14
				c-2.78,0-5.56,0-8.34,0c0-2.18,0-4.36,0-6.54c3.79,0,7.59,0,11.38,0c0-0.95,0-1.91,0-2.86c-1.12,0-2.24,0-3.36,0
				c0-4.96,0-9.93,0-14.89c-1.12,0-2.24,0-3.36,0c0,4.96,0,9.93,0,14.89c-1.55,0-3.1,0-4.66,0c0-4.52,0-9.03,0-13.55
				c-1.12,0-2.24,0-3.36,0c0,8.53,0,17.05,0,25.58c0,6.82-1.01,12-3.04,15.53c1.11,0.95,2.06,1.84,2.86,2.67
				C833.52,510.75,834.71,504.76,834.71,496.83z"/>
			<path class="st2" d="M863.61,502.82c0-1.97,0-3.93,0-5.9c-1.12,0-2.24,0-3.36,0c0,1.97,0,3.93,0,5.9c-3.07,0-6.15,0-9.22,0
				c4.06-2.55,6.73-5.22,8.02-8.02c2.9,0,5.81,0,8.71,0c0,0.52,0,1.04,0,1.57c1.08,0,2.15,0,3.23,0c0-7.38,0-14.75,0-22.12
				c-3.96,0-7.93,0-11.89,0c0.58-1.2,1.21-2.54,1.89-4.01c-1.2-0.37-2.4-0.74-3.6-1.11c-0.61,1.94-1.21,3.64-1.8,5.12
				c-2.61,0-5.22,0-7.84,0c0,6.85,0,13.7,0,20.56c2.46,0,4.92,0,7.37,0c-1.41,2.06-3.75,3.93-7.01,5.62c0.74,0.8,1.41,1.6,2.03,2.4
				c-1.87,0-3.75,0-5.62,0c0,1.06,0,2.12,0,3.18c5.24,0,10.48,0,15.72,0c0,2.81,0,5.62,0,8.43c1.12,0,2.24,0,3.36,0
				c0-2.81,0-5.62,0-8.43c3.47,0,6.94,0,10.42,0c0-1.06,0-2.12,0-3.18C870.55,502.82,867.08,502.82,863.61,502.82z M860.89,477.29
				h6.87V483h-6.87V477.29z M860.79,485.95c2.32,0,4.64,0,6.96,0c0,1.94,0,3.87,0,5.81c-2.57,0-5.13,0-7.7,0
				C860.46,490.16,860.7,488.23,860.79,485.95z M850.98,477.29h6.68V483h-6.68V477.29z M850.98,491.76c0-1.94,0-3.87,0-5.81
				c2.2,0,4.39,0,6.59,0c-0.15,2.34-0.48,4.27-0.97,5.81C854.73,491.76,852.85,491.76,850.98,491.76z"/>
		</g>
		<g>
			<path class="st2" d="M331.38,486.55c1.81,1.51,3.66,3.18,5.53,5.02c0.78-0.8,1.57-1.6,2.35-2.4c-1.91-1.63-3.84-3.2-5.81-4.7
				C332.77,485.17,332.08,485.86,331.38,486.55z"/>
			<path class="st2" d="M330.79,498.35c1.84,1.63,3.67,3.32,5.48,5.07c0.8-0.8,1.6-1.6,2.4-2.4c-1.78-1.6-3.7-3.18-5.76-4.75
				C332.2,496.97,331.49,497.66,330.79,498.35z"/>
			<path class="st2" d="M308.94,472.22c1.57,1.29,4.01,3.52,7.33,6.68c0.77-0.8,1.67-1.71,2.72-2.72c-3.29-2.86-5.85-4.99-7.7-6.41
				C310.5,470.59,309.72,471.4,308.94,472.22z"/>
			<path class="st2" d="M307.19,484.48c2.27,1.72,4.78,3.81,7.51,6.27c0.68-0.71,1.57-1.69,2.67-2.95c-2.43-2-5.06-3.98-7.88-5.95
				C308.72,482.73,307.95,483.6,307.19,484.48z"/>
			<path class="st2" d="M308.57,513.28c1.35,0.41,2.7,0.83,4.06,1.24c1.35-5.62,2.81-11.45,4.38-17.47
				c-1.14-0.37-2.38-0.85-3.73-1.43C311.95,502.02,310.38,507.91,308.57,513.28z"/>
			<path class="st2" d="M317.05,482.26c0.86,0.89,1.64,1.8,2.35,2.72c2.37-2.35,4.54-5.07,6.52-8.16c8.76,0,17.53,0,26.3,0
				c0-1.08,0-2.15,0-3.23c-8.12,0-16.24,0-24.36,0c0.81-1.44,1.59-2.97,2.33-4.56c-1.31,0-2.61,0-3.92,0
				C323.93,474.26,320.86,478.67,317.05,482.26z"/>
			<path class="st2" d="M353.19,495.54c0-1.08,0-2.15,0-3.23c-1.61,0-3.23,0-4.84,0c0.09-3.41,0.19-7.25,0.28-11.52
				c-8.28,0-16.56,0-24.84,0c-0.54,3.84-1.09,7.68-1.64,11.52c-1.57,0-3.15,0-4.72,0c0,1.08,0,2.15,0,3.23c1.42,0,2.84,0,4.26,0
				c-0.39,2.74-0.78,5.47-1.18,8.21c0,1.14,0,2.27,0,3.41c7.9,0,15.79,0,23.69,0c-0.45,2.3-1.83,3.46-4.15,3.46
				c-1.6,0-3.89-0.14-6.87-0.41c0.28,1.44,0.49,2.69,0.65,3.73c2.52,0.12,4.58,0.18,6.18,0.18c2.83,0,4.79-0.63,5.9-1.89
				c0.97-1.12,1.58-2.81,1.84-5.07c1.32,0,2.64,0,3.96,0c0-1.05,0-2.09,0-3.13c-1.25,0-2.5,0-3.76,0c0.09-2.34,0.18-5.16,0.28-8.48
				C349.88,495.54,351.53,495.54,353.19,495.54z M344.45,504.02c-6.77,0-13.54,0-20.3,0c0.38-2.83,0.75-5.65,1.13-8.48
				c6.5,0,13,0,19.5,0C344.68,498.67,344.57,501.5,344.45,504.02z M344.87,492.31c-6.39,0-12.78,0-19.17,0
				c0.38-2.8,0.75-5.59,1.13-8.39c6.08,0,12.17,0,18.25,0C345.01,486.9,344.94,489.7,344.87,492.31z"/>
		</g>
		<g>
			<path class="st2" d="M402.98,490.84c4.15,5.9,8.01,11.92,11.57,18.07c1.15-0.75,2.3-1.51,3.46-2.26
				c-3.63-5.84-7.65-11.79-12.08-17.84C404.95,489.49,403.97,490.16,402.98,490.84z"/>
			<path class="st2" d="M384.91,488.72c-3.01,6.73-6.79,12.81-11.34,18.25c1.23,0.92,2.32,1.71,3.27,2.35
				c4.27-5.5,8.16-11.83,11.66-18.99C387.31,489.79,386.11,489.26,384.91,488.72z"/>
			<path class="st2" d="M398.1,508.21c0-8.94,0-17.88,0-26.83c-1.24,0-2.49,0-3.73,0c0,8.63,0,17.27,0,25.9
				c0,2.03-0.98,3.04-2.95,3.04c-1.17,0-3.21-0.12-6.13-0.37c0.34,1.38,0.58,2.69,0.74,3.92c2.61,0.06,4.73,0.09,6.36,0.09
				C396.19,513.98,398.1,512.06,398.1,508.21z"/>
			<path class="st2" d="M386.07,469.17c-2.83,6.61-7.31,12.72-13.46,18.35c1.35,1.11,2.34,2.03,2.95,2.77
				c3.56-3.53,6.66-7.28,9.29-11.25c9.43,0,18.85,0,28.28,0c-1.29,2.49-2.78,4.87-4.47,7.14c1.51,0.58,2.67,1.12,3.5,1.61
				c1.84-2.64,3.58-5.56,5.21-8.76c0-1.17,0-2.33,0-3.5c-10.11,0-20.22,0-30.33,0c0.97-1.68,1.86-3.4,2.67-5.16
				C388.49,469.97,387.28,469.57,386.07,469.17z"/>
		</g>
		<g>
			<path class="st2" d="M471.47,507.75c2.98,2,6.08,4.32,9.31,6.96c0.77-0.92,1.54-1.84,2.3-2.77c-3.1-2.3-6.27-4.5-9.5-6.59
				C472.88,506.16,472.18,506.95,471.47,507.75z"/>
			<path class="st2" d="M464.28,505.45c-3.41,2.77-6.73,4.92-9.96,6.45c0.86,0.92,1.6,1.87,2.21,2.86
				c3.04-1.72,6.41-4.01,10.09-6.87C465.85,507.08,465.06,506.26,464.28,505.45z"/>
			<path class="st2" d="M455.2,478.95c0.74,0.74,1.49,1.6,2.26,2.58c1.03-1.35,2.05-2.93,3.06-4.75c7.54,0,15.07,0,22.61,0
				c0-1.04,0-2.09,0-3.13c-6.99,0-13.98,0-20.97,0c0.58-1.2,1.17-2.47,1.75-3.83c-1.11-0.29-2.21-0.58-3.32-0.88
				C459.15,472.97,457.35,476.3,455.2,478.95z"/>
			<path class="st2" d="M446.28,476.69c-2.68,0-5.36,0-8.04,0c0,1.04,0,2.09,0,3.13c1.45,0,2.9,0,4.36,0
				c-0.12,6.41-0.22,10.8-0.3,13.18c-0.25,8.6-1.83,14.72-4.75,18.35c0.92,1.01,1.69,1.94,2.3,2.76c3.87-4.39,5.81-12.55,5.81-24.47
				c1.64,0,3.29,0,4.93,0c-0.15,7.04-0.37,12.75-0.65,17.15c-0.09,2.12-1.04,3.18-2.86,3.18c-0.83,0-2.11-0.09-3.83-0.28
				c0.28,1.32,0.51,2.49,0.69,3.5c1.6,0.06,3.13,0.08,4.61,0.05c2.89-0.03,4.44-2.04,4.66-6.04c0.28-5.84,0.51-12.72,0.69-20.65
				c-2.72,0-5.44,0-8.16,0c0.05-2.11,0.08-4.35,0.11-6.73c2.84,0,5.67,0,8.5,0c0-1.05,0-2.09,0-3.13c-2.57,0-5.15,0-7.72,0
				c0.96-0.45,1.92-0.89,2.88-1.34c-1.17-2.4-2.3-4.52-3.41-6.36c-0.94,0.46-1.87,0.92-2.81,1.38
				C444.32,472.28,445.31,474.38,446.28,476.69z"/>
			<path class="st2" d="M478.01,502.18v-16.59h4.42v-3.04h-4.42v-3.69h-3.32v3.69h-11.39v-3.64h-3.32v3.64h-4.52v3.04h4.52v16.59
				h-4.89v3.04h28.21v-3.04H478.01z M474.7,502.18h-11.39v-3.69h11.39V502.18z M474.7,495.72h-11.39v-3.64h11.39V495.72z
				 M474.7,489.22h-11.39v-3.64h11.39V489.22z"/>
		</g>
		<g>
			<path class="st2" d="M527.67,483.92c-0.71,0.98-1.41,1.97-2.12,2.95c0-3.35,0-6.7,0-10.05c7.47,0,14.93,0,22.4,0
				c0-1.26,0-2.52,0-3.78c-14.93,0-29.87,0-44.8,0c0,1.26,0,2.52,0,3.78c6.07,0,12.14,0,18.21,0c0,12.51,0,25.01,0,37.52
				c1.4,0,2.8,0,4.19,0c0-9.02,0-18.04,0-27.06c6.64,4.06,12.34,7.91,17.1,11.57c0.91-1.25,1.81-2.49,2.72-3.73
				C540.61,491.8,534.71,488.07,527.67,483.92z"/>
		</g>
		<g>
			<path class="st2" d="M585.81,499.04c-0.91,0.6-1.81,1.2-2.72,1.8c1.51,2.09,2.93,4.32,4.29,6.68c0.98-0.68,1.97-1.35,2.95-2.03
				C589.04,503.53,587.53,501.38,585.81,499.04z"/>
			<path class="st2" d="M572.54,498.81c-1.72,3.81-3.33,6.88-4.84,9.22c1.14,0.55,2.15,1.11,3.04,1.66c1.63-2.8,3.27-5.93,4.93-9.4
				C574.63,499.79,573.58,499.3,572.54,498.81z"/>
			<path class="st2" d="M579.13,474.47c-3.32,0-6.64,0-9.96,0c0,0.98,0,1.97,0,2.95c7.19,0,14.38,0,21.57,0c0-0.98,0-1.97,0-2.95
				c-3.27,0-6.53,0-9.8,0c0.52-0.25,1.03-0.49,1.54-0.74c-0.83-1.6-1.72-3.18-2.67-4.75c-0.98,0.46-1.97,0.92-2.95,1.38
				C577.71,471.85,578.47,473.21,579.13,474.47z"/>
			<path class="st2" d="M575.12,485.17c-2.47,0-4.95,0-7.42,0c0,0.98,0,1.97,0,2.95c8.08,0,16.16,0,24.24,0c0-0.98,0-1.97,0-2.95
				c-2.33,0-4.66,0-6.98,0c1.35-1.61,2.77-3.38,4.26-5.3c-1.09-0.62-2.18-1.23-3.27-1.84c-1.41,2.35-2.96,4.73-4.63,7.14
				c-2.03,0-4.06,0-6.08,0c0.87-0.63,1.74-1.26,2.6-1.89c-1.6-2.24-2.9-3.98-3.92-5.21c-0.83,0.58-1.66,1.17-2.49,1.75
				C572.58,481.31,573.81,483.09,575.12,485.17z"/>
			<path class="st2" d="M581.71,508.77c0-4.01,0-8.02,0-12.03c3.01,0,6.02,0,9.03,0c0-0.98,0-1.97,0-2.95c-3.01,0-6.02,0-9.03,0
				c0-1.46,0-2.92,0-4.38c-1.11,0-2.21,0-3.32,0c0,1.46,0,2.92,0,4.38c-3.13,0-6.27,0-9.4,0c0,0.98,0,1.97,0,2.95
				c3.13,0,6.27,0,9.4,0c0,3.76,0,7.53,0,11.29c0,1.57-0.72,2.35-2.17,2.35c-1.01,0-2.41-0.09-4.19-0.28
				c0.22,1.32,0.38,2.49,0.51,3.5c1.66,0.03,3.15,0.05,4.47,0.05C580.14,513.65,581.71,512.02,581.71,508.77z"/>
			<path class="st2" d="M593.55,473.09c0,6.41,0,12.81,0,19.22c0,8.48-1.98,14.89-5.95,19.22c0.89,1.01,1.71,2,2.44,2.95
				c4.52-5.26,6.77-12.6,6.77-22.03c0-0.75,0-1.51,0-2.26c2.27,0,4.55,0,6.82,0c0,8.05,0,16.1,0,24.15c1.14,0,2.27,0,3.41,0
				c0-8.05,0-16.1,0-24.15c2.2,0,4.39,0,6.59,0c0-1.04,0-2.09,0-3.13c-5.61,0-11.22,0-16.82,0c0-3.58,0-7.16,0-10.74
				c4.27-0.25,9.45-0.77,15.53-1.57c-0.4-1.18-0.8-2.37-1.2-3.55C605.78,472.4,599.92,473.03,593.55,473.09z"/>
		</g>
		<g>
			<path class="st2" d="M650.49,473.28c-0.95,0.6-1.9,1.2-2.86,1.8c1.11,1.54,2.14,3.03,3.11,4.49c-3.76,0.31-7.95,0.61-12.56,0.9
				c2.83-3.29,5.52-6.78,8.07-10.46c-1.21-0.45-2.43-0.89-3.64-1.34c-1.63,2.73-3.29,5.21-4.98,7.42c-1.63,2.03-3.12,3.41-4.47,4.15
				c0.49,1.29,0.98,2.58,1.47,3.87c4.52-0.45,10.53-0.95,18.05-1.5c0.68,1.11,1.31,2.19,1.91,3.25c0.95-0.62,2.01-1.32,3.18-2.12
				C655.72,480.39,653.29,476.9,650.49,473.28z"/>
			<path class="st2" d="M662.62,477.26c0-2.63,0-5.27,0-7.9c-1.2,0-2.4,0-3.6,0c0,5.02,0,10.05,0,15.07c0,3.69,1.86,5.53,5.58,5.53
				c2.24,0,4.49,0,6.73,0c3.69,0,5.76-1.34,6.22-4.01c0.28-1.54,0.54-3.53,0.78-5.99c-1.23-0.43-2.43-0.88-3.6-1.34
				c-0.15,2.52-0.34,4.44-0.55,5.76c-0.25,1.6-1.34,2.4-3.27,2.4c-1.95,0-3.9,0-5.85,0c-1.63,0-2.44-1.03-2.44-3.09
				c0-0.88,0-1.77,0-2.65c4.98-2.01,9.86-4.23,14.66-6.66c-0.69-1.06-1.38-2.12-2.07-3.18
				C671.04,473.57,666.84,475.59,662.62,477.26z"/>
			<path class="st2" d="M662.52,499.46c0-2.54,0-5.07,0-7.61c-1.2,0-2.4,0-3.6,0c0,5.36,0,10.72,0,16.09c0,3.6,1.75,5.39,5.26,5.39
				c2.57,0,5.13,0,7.7,0c3.44,0,5.36-1.35,5.76-4.06c0.28-1.38,0.54-3.43,0.78-6.13c-1.23-0.4-2.43-0.83-3.6-1.29
				c-0.15,2.67-0.34,4.69-0.55,6.04c-0.25,1.51-1.15,2.26-2.72,2.26c-2.26,0-4.52,0-6.78,0c-1.51,0-2.26-0.97-2.26-2.9
				c0-1.33,0-2.66,0-3.99c5.49-2.04,10.74-4.39,15.76-7.03c-0.69-1.06-1.38-2.12-2.07-3.18
				C671.45,495.69,666.89,497.83,662.52,499.46z"/>
			<path class="st2" d="M635.74,486.87c0,9.07,0,18.13,0,27.2c1.2,0,2.4,0,3.6,0c0-3.27,0-6.55,0-9.82c3.84,0,7.68,0,11.52,0
				c0,1.28,0,2.55,0,3.83c0,1.57-0.75,2.35-2.26,2.35c-1.17,0-2.72-0.08-4.66-0.23c0.31,1.38,0.54,2.55,0.69,3.5
				c2.12,0,3.86-0.02,5.21-0.05c3.07,0,4.61-1.66,4.61-4.98c0-7.27,0-14.53,0-21.8C648.22,486.87,641.98,486.87,635.74,486.87z
				 M650.86,501.48h-11.52v-4.47h11.52V501.48z M650.86,494.25h-11.52v-4.42h11.52V494.25z"/>
		</g>
		<g>
			<path class="st2" d="M702.3,469.91c-0.78,0.84-1.57,1.69-2.35,2.54c2.06,1.69,4.42,3.86,7.1,6.5c0.77-0.83,1.69-1.77,2.77-2.81
				C707.23,473.8,704.72,471.72,702.3,469.91z"/>
			<path class="st2" d="M700.31,481.76c-0.77,0.88-1.54,1.75-2.3,2.63c2.24,1.75,4.84,3.93,7.79,6.55c0.68-0.71,1.55-1.71,2.63-3
				C705.41,485.54,702.71,483.48,700.31,481.76z"/>
			<path class="st2" d="M714.79,510.66c0.91,0.71,1.81,1.41,2.72,2.12c2.46-2.8,4.85-6.05,7.19-9.77c-0.98-0.6-1.97-1.2-2.95-1.8
				C719.72,504.71,717.4,507.86,714.79,510.66z"/>
			<path class="st2" d="M743.73,510.24c-2.09-2.92-4.53-6.01-7.33-9.27c-0.89,0.63-1.78,1.26-2.67,1.89c2.55,3.1,4.92,6.3,7.1,9.59
				C741.8,511.72,742.77,510.98,743.73,510.24z"/>
			<path class="st2" d="M703.49,494.62c-1.23,5.9-2.74,12-4.52,18.3c1.18,0.4,2.37,0.8,3.55,1.2c1.57-6.73,2.98-12.71,4.24-17.93
				C705.69,495.85,704.6,495.32,703.49,494.62z"/>
			<path class="st2" d="M743.83,475.44c0-1.04,0-2.09,0-3.13c-10.66,0-21.33,0-31.99,0c0,5.49,0,10.97,0,16.46
				c0,10.63-2.12,18.31-6.36,23.05c1.05,0.95,1.94,1.9,2.67,2.86c4.73-5.22,7.1-13.87,7.1-25.95c0-4.42,0-8.85,0-13.28
				c3.89,0,7.77,0,11.66,0c-0.63,1.89-1.27,3.7-1.94,5.44c-2,0-3.99,0-5.99,0c0,6.3,0,12.6,0,18.9c1.11,0,2.21,0,3.32,0
				c0-0.4,0-0.8,0-1.2c1.86,0,3.72,0,5.58,0c0,3.5,0,7.01,0,10.51c0,1.47-0.71,2.21-2.12,2.21c-1.14,0-2.47-0.06-4.01-0.18
				c0.28,1.2,0.49,2.26,0.65,3.18c1.63,0.03,2.96,0.05,4.01,0.05c3.2,0,4.79-1.64,4.79-4.93c0-3.61,0-7.22,0-10.83
				c1.98,0,3.96,0,5.95,0c0,0.4,0,0.8,0,1.2c1.11,0,2.21,0,3.32,0c0-6.3,0-12.6,0-18.9c-4.06,0-8.11,0-12.17,0
				c0.89-1.78,1.76-3.6,2.6-5.44C735.21,475.44,739.52,475.44,743.83,475.44z M737.14,495.54H722.3v-4.38h14.84V495.54z
				 M737.14,483.92v4.29H722.3v-4.29H737.14z"/>
		</g>
		<g>
			<path class="st2" d="M765.6,493.28v21.29h3.5v-3.09h10.55v3.09h3.5v-21.29H765.6z M779.65,508.35H769.1v-11.85h10.55V508.35z"/>
			<path class="st2" d="M788.87,493.28v21.29h3.5v-3.13h10.6v3.13h3.5v-21.29H788.87z M802.98,508.44h-10.6v-11.94h10.6V508.44z"/>
			<path class="st2" d="M770.11,471.25v18.25h3.69v-1.47h24.43v1.47h3.69v-18.25H770.11z M798.23,484.8H773.8v-10.32h24.43V484.8z"
				/>
		</g>
	</g>
	<g class="st3">
		<g>
			<path class="st2" d="M766.02,370.06c4.03-0.99,8.06-1.65,12.09-1.98c7.05-0.33,9.4-0.49,7.05-0.49
				c12.09-0.33,21.66-0.66,28.71-0.99c1.51,1.98,3.02,3.95,4.53,5.93c3.86-2.47,7.72-4.94,11.58-7.41c0,0.82,0,1.65,0,2.47
				c0,11.53,5.54,17.12,16.62,16.79c5.71,0,11.42,0,17.12,0c9.07,0,14.61-3.79,16.62-11.36c1.34-5.6,2.18-10.54,2.52-14.82
				c-0.67-0.33-1.85-0.66-3.53-0.99c-4.36-1.65-7.89-2.8-10.58-3.46c-0.34,3.62-0.84,7.57-1.51,11.86
				c-0.67,3.62-3.02,5.43-7.05,5.43c-2.69,0-5.37,0-8.06,0c-4.36,0-6.55-2.14-6.55-6.42c0-1.81,0-3.62,0-5.43
				c8.39-2.96,18.97-7.41,31.73-13.34c2.01-0.99,3.53-1.65,4.53-1.98c-3.02-3.79-6.04-7.57-9.07-11.36
				c-9.4,5.27-18.47,9.55-27.2,12.84c0-5.43,0-10.87,0-16.3c-5.2,0-10.41,0-15.61,0c0,11.53,0,23.05,0,34.58
				c-7.05-9.22-14.1-17.78-21.15-25.69c-3.69,2.14-7.39,4.28-11.08,6.42c2.52,3.46,5.04,6.92,7.55,10.37
				c-7.89,0.16-15.78,0.33-23.67,0.49c4.03-3.95,10.07-10.37,18.13-19.27c1.68-1.65,2.85-2.96,3.53-3.95
				c-5.54-1.65-11.08-3.29-16.62-4.94c-6.72,10.21-12.42,17.62-17.12,22.23c-3.02,3.62-5.88,6.09-8.56,7.41
				C762.66,361.17,764.34,365.62,766.02,370.06z"/>
			<path class="st2" d="M767.03,375c0,23.55,0,47.09,0,70.64c4.87,0,9.74,0,14.6,0c0-7.08,0-14.16,0-21.24c8.39,0,16.79,0,25.18,0
				c0,1.32,0,2.63,0,3.95c0.34,2.96-1.51,4.28-5.54,3.95c-3.36,0-6.88,0-10.58,0c1.01,2.96,1.51,5.6,1.51,7.9
				c0.34,2.3,0.67,3.95,1.01,4.94c7.72,0,12.93-0.16,15.61-0.49c8.73-0.33,12.93-4.78,12.59-13.34c0-18.77,0-37.54,0-56.31
				C803.29,375,785.16,375,767.03,375z M806.81,413.04h-25.18v-7.41h25.18V413.04z M806.81,394.76h-25.18v-7.9h25.18V394.76z"/>
			<path class="st2" d="M846.6,444.16c5.71,0,11.42,0,17.12,0c9.74,0,15.28-3.79,16.62-11.36c1.01-3.29,2.01-8.4,3.02-15.31
				c-3.36-0.66-7.89-1.98-13.6-3.95c-0.34-0.33-0.67-0.49-1.01-0.49c0,5.6-0.34,9.88-1.01,12.84c-0.67,3.95-3.19,5.76-7.55,5.43
				c-2.52,0-5.04,0-7.55,0c-4.7,0.33-6.88-1.65-6.55-5.93c0-2.63,0-5.27,0-7.9c10.74-4.28,22.83-9.55,36.26-15.81
				c-3.02-3.95-6.04-7.9-9.07-11.86c-10.41,5.27-19.47,9.55-27.2,12.84c0-4.61,0-9.22,0-13.83c-5.37,0-10.74,0-16.12,0
				c0,13.17,0,26.35,0,39.52C829.98,438.89,835.52,444.16,846.6,444.16z"/>
		</g>
		<g>
			<path class="st2" d="M673.16,360.18c4.7-1.81,9.4-3.62,14.1-5.43c-3.02-7.57-6.38-15.15-10.07-22.72
				c-4.53,1.48-9.07,2.96-13.6,4.45C667.62,344.7,670.81,352.61,673.16,360.18z"/>
			<path class="st2" d="M671.14,443.67c1.34-1.98,3.53-4.12,6.55-6.42c4.03-3.29,8.56-6.42,13.6-9.39c-0.34-1.65-0.84-4.45-1.51-8.4
				c-0.34-3.29-0.67-5.76-1.01-7.41c-0.34,0.33-0.84,0.66-1.51,0.99c-3.02,2.63-5.37,4.45-7.05,5.43c0-17.62,0-35.24,0-52.86
				c-7.05,0-14.1,0-21.15,0c0,5.1,0,10.21,0,15.31c2.35,0,4.7,0,7.05,0c0,14,0,27.99,0,41.99c0,3.95-1.17,7.08-3.52,9.39
				C665.44,436.09,668.29,439.88,671.14,443.67z"/>
			<path class="st2" d="M753.24,344.87c-4.03-2.14-8.06-4.28-12.09-6.42c-3.02,4.94-6.04,9.72-9.07,14.33c0-3.79,0-7.58,0-11.36
				c-4.36,0-8.73,0-13.09,0c0-4.28,0-8.56,0-12.84c-4.87,0-9.74,0-14.61,0c0,4.28,0,8.56,0,12.84c-4.36,0-8.73,0-13.09,0
				c0,4.28,0,8.56,0,12.84c4.37,0,8.73,0,13.09,0c0,3.62,0,7.25,0,10.87c-6.04,0-12.09,0-18.13,0c0,4.28,0,8.56,0,12.84
				c7.72,0,15.44,0,23.17,0c-7.72,6.26-16.62,11.86-26.69,16.8c0.67,1.98,1.51,4.61,2.52,7.9c1.01,2.63,1.68,4.61,2.01,5.93
				c1.01-0.66,2.35-1.48,4.03-2.47c2.01-1.32,3.36-2.14,4.03-2.47c0,14,0,27.99,0,41.99c4.7,0,9.4,0,14.1,0c0-1.81,0-3.62,0-5.43
				c7.22,0,14.44,0,21.66,0c0,1.81,0,3.62,0,5.43c4.87,0,9.74,0,14.6,0c0-19.76,0-39.52,0-59.28c-8.56,0-17.12,0-25.69,0
				c0.67-0.66,1.68-1.65,3.02-2.96c2.69-2.31,4.53-4.12,5.54-5.43c7.72,0,15.44,0,23.17,0c0-4.28,0-8.56,0-12.84
				c-4.03,0-8.06,0-12.09,0C744.34,359.19,748.87,352.44,753.24,344.87z M731.08,428.85h-21.66v-9.39h21.66V428.85z M731.08,398.71
				v9.39h-21.66v-9.39H731.08z M727.05,359.69c-1.68,2.3-3.02,4.12-4.03,5.43c-1.34,0-2.69,0-4.03,0c0-3.62,0-7.25,0-10.87
				c4.03,0,8.06,0,12.09,0C730.41,355.24,729.06,357.05,727.05,359.69z"/>
			<path class="st2" d="M656.03,357.22c3.02-8.89,5.54-17.78,7.55-26.68c-5.2-0.82-10.41-1.65-15.61-2.47
				c-3.69,18.77-9.74,36.06-18.13,51.87c0.67,3.95,1.68,9.72,3.02,17.29c0.34,2.63,0.5,4.45,0.5,5.43
				c3.02-4.28,5.71-8.89,8.06-13.83c0,18.94,0,37.87,0,56.81c4.87,0,9.74,0,14.6,0C656.03,416.17,656.03,386.69,656.03,357.22z"/>
		</g>
		<g>
			<polygon class="st2" points="351.41,361.07 334.22,403.1 351.41,403.1 351.41,413.6 329.93,413.6 317.12,413.6 308.49,413.59 
				321.36,382.08 308.49,382.08 329.95,330.42 351.41,330.42 338.52,361.08 			"/>
			<polygon class="st2" points="351.42,418.26 329.93,445.12 308.48,445.1 329.93,418.24 			"/>
			<polygon class="st2" points="329.93,413.6 317.12,413.6 317.12,413.6 			"/>
			<path class="st2" d="M450.78,350.54v75.7c0,10.43-8.45,18.88-18.88,18.88h-12.62v-10.51l0,0c5.79,0,10.49-4.7,10.49-10.49v-73.66
				h-15.89l-4.46,20.79h4.6l11.04,52.9h-16.41l-6.2-20.39l-4.37,20.39h-16.41l10.83-73.7h-15.28v94.65h-21.02v-94.58
				c0-5.79,4.69-10.48,10.48-10.48h26.01v-9.64h21.46v9.64h26.12C446.09,340.06,450.78,344.75,450.78,350.54z"/>
			<path class="st2" d="M606.8,340.79v10.64h-21.02v-10.37c0-0.05,0-0.09,0.01-0.14h-42.03v10.51h-21.02v-21.02h73.55v0.01
				c0.05-0.01,0.09-0.01,0.14-0.01C602.15,330.42,606.8,335.06,606.8,340.79z"/>
			<path class="st2" d="M507.88,330.45c-0.28-0.03-0.57-0.04-0.87-0.04h-41.99v103.98c0,5.49,4.23,10,9.61,10.44
				c0.28,0.03,0.57,0.04,0.87,0.04h41.99V340.9C517.49,335.41,513.26,330.9,507.88,330.45z M496.48,340.68
				c-0.01,0.07-0.01,0.15-0.01,0.22v41.19h-10.45v-41.41H496.48z M486.02,434.61c0.01-0.07,0.01-0.15,0.01-0.22v-42.05h10.45v42.27
				H486.02z"/>
			<path class="st2" d="M507.88,330.42v0.04c-0.28-0.03-0.57-0.04-0.87-0.04H507.88z"/>
			<polygon class="st2" points="557.91,371.58 544.48,392.59 554.27,392.59 554.27,382.09 575.28,382.09 575.28,392.59 
				606.8,392.59 606.8,403.1 575.28,403.1 575.28,413.67 606.8,413.67 606.8,429.24 575.28,429.24 575.28,445.64 554.27,445.64 
				554.27,429.24 522.74,429.24 522.74,413.67 554.27,413.67 554.27,403.1 522.74,403.1 522.74,392.59 522.86,392.59 536.56,371.58 
				522.74,371.58 522.74,361.94 543.41,361.94 554.27,345.28 575.28,345.28 564.63,361.94 606.8,361.94 606.8,371.58 			"/>
			<path class="st2" d="M475.5,444.87h-0.87v-0.04C474.91,444.86,475.2,444.87,475.5,444.87z"/>
		</g>
	</g>
</g>
<g class="st0">
	<g class="st3">
		<path class="st2" d="M444.97,321.65v80.97l-57.21-80.97h-11.24c-6.44,0-11.65,5.22-11.65,11.65v103.57h22.89v-80.9l57.21,80.9
			h11.24c6.44,0,11.65-5.22,11.65-11.64V321.65H444.97z"/>
		<path class="st2" d="M526.23,354.34l-12.59,35.96h16.73c3.17,0,5.97,2.02,6.98,5.01l6.03,17.87h-37.77l-8.01,23.69h-22.88
			l40.09-115.09l0.05-0.14h14.62c4.84,0,9.16,3.05,10.76,7.62l37.46,107.61h-22.88L526.23,354.34z"/>
		<polygon class="st2" points="687.56,321.65 687.56,436.88 664.68,436.88 664.68,390.3 607.47,390.3 607.47,436.88 584.58,436.88 
			584.58,321.65 607.47,321.65 607.47,367.41 664.68,367.41 664.68,321.65 		"/>
		<path class="st2" d="M825.68,436.88H802.8V321.65h19.67c1.77,0,3.21,1.44,3.21,3.21V436.88z"/>
		<path class="st2" d="M796.67,321.51v68.65c0,0,0,45.76-51.49,45.76c-51.5,0-51.5-45.76-51.5-45.76v-68.65h11.26
			c6.42,0,11.63,5.21,11.63,11.63v57.02c0,0,0.16,22.88,28.61,22.88c28.44,0,28.6-22.88,28.6-22.88v-57.31
			c0-6.26,5.08-11.34,11.34-11.34H796.67z"/>
	</g>
	<g class="st3">
		<g>
			<path class="st2" d="M600.32,483.22c-0.64-1.93-1.56-3.63-2.76-5.11c-1.2-1.48-2.69-2.64-4.46-3.51
				c-1.77-0.86-3.79-1.29-6.06-1.29c-1.54,0-3.1,0.27-4.67,0.82c-1.57,0.54-2.8,1.29-3.71,2.25c0-5.29,0-10.58,0-15.87
				c-3.27,0-6.54,0-9.81,0c0,14.74,0,29.47,0,44.21c1.59,0.55,3.6,1.07,6.03,1.57c2.43,0.5,5.01,0.75,7.73,0.75
				c2.95,0,5.58-0.43,7.9-1.29c2.32-0.86,4.27-2.07,5.86-3.61c1.59-1.54,2.8-3.41,3.64-5.59c0.84-2.18,1.26-4.56,1.26-7.15
				C601.27,487.21,600.96,485.15,600.32,483.22z M589.25,496.33c-1.43,1.68-3.44,2.52-6.03,2.52c-1.18,0-2.1-0.06-2.76-0.17
				c-0.66-0.11-1.26-0.28-1.81-0.51c0-3.29,0-6.58,0-9.88c0-2,0.52-3.6,1.57-4.8c1.04-1.2,2.66-1.8,4.84-1.8
				c1.14,0,2.1,0.24,2.89,0.71c0.8,0.48,1.44,1.09,1.94,1.84c0.5,0.75,0.87,1.6,1.12,2.55c0.25,0.95,0.37,1.93,0.37,2.93
				C591.4,492.45,590.68,494.65,589.25,496.33z"/>
			<path class="st2" d="M608.9,510.98c-1.32,2.25-2.63,4.5-3.95,6.74c1.18,0.86,2.48,1.52,3.88,1.98c1.41,0.45,2.97,0.68,4.7,0.68
				c2.23,0,4.08-0.43,5.55-1.29c1.48-0.86,2.72-1.99,3.75-3.37c1.02-1.38,1.88-2.95,2.59-4.7c0.7-1.75,1.42-3.51,2.15-5.28
				c4.36-10.58,8.72-21.16,13.08-31.74c-3.47,0-6.95,0-10.42,0c-2.41,6.72-4.81,13.44-7.22,20.16c-2.66-6.72-5.31-13.44-7.97-20.16
				c-3.72,0-7.45,0-11.17,0c4.86,10.54,9.72,21.07,14.58,31.6c-0.32,0.86-0.64,1.73-0.95,2.59c-0.64,1.59-1.31,2.71-2.01,3.37
				c-0.7,0.66-1.58,0.99-2.62,0.99c-0.77,0-1.49-0.16-2.15-0.48C610.05,511.75,609.45,511.39,608.9,510.98z"/>
		</g>
		<g>
			<path class="st2" d="M786.4,477.94c4.33,0,8.03,2.79,9.53,6.73h-19.07C778.38,480.73,782.07,477.94,786.4,477.94 M767.68,488.52
				c0,9.97,8.27,18.06,18.47,18.06c7.76,0,14.39-4.67,17.13-11.3l-7.96-1.4c-1.76,3.23-5.1,5.4-8.92,5.4
				c-5.05,0-9.25-3.81-10.09-8.81h28.21c0.07-0.64,0.11-1.29,0.11-1.95c0-9.98-8.27-18.06-18.47-18.06
				C775.95,470.45,767.68,478.53,767.68,488.52z"/>
			<rect x="753.28" y="471.21" class="st2" width="9.43" height="34.72"/>
			<path class="st2" d="M752.74,462.31c0,2.9,2.36,5.26,5.26,5.26c2.9,0,5.26-2.35,5.26-5.26c0-2.9-2.36-5.26-5.26-5.26
				C755.1,457.06,752.74,459.41,752.74,462.31"/>
			<polygon class="st2" points="695.55,460.08 695.55,478.77 675.22,478.77 675.22,460.08 664.91,460.08 664.91,505.9 675.22,505.9 
				675.22,487.21 695.55,487.21 695.55,505.9 705.87,505.9 705.87,460.08 			"/>
			<path class="st2" d="M718.63,488.52c0-5.76,4.73-10.44,10.56-10.44c5.83,0,10.56,4.68,10.56,10.44c0,5.76-4.73,10.44-10.56,10.44
				C723.36,498.96,718.63,494.28,718.63,488.52 M710.62,488.52c0,9.97,8.1,18.05,18.11,18.05c3.35,0,6.49-0.91,9.18-2.49v1.82h9.2
				v-34.68h-8.98v1.86c-2.74-1.66-5.95-2.61-9.4-2.61C718.72,470.47,710.62,478.55,710.62,488.52z"/>
			<path class="st2" d="M808.74,486.17v19.75h9.03l0-20.12c0-4.61,3.45-8.41,7.91-8.95l-1.56-8.87
				C815.44,469.5,808.84,477.06,808.74,486.17"/>
		</g>
	</g>
</g>
</svg>
